<?xml version="1.0" encoding="utf-8"?>
<!-- Generator: Adobe Illustrator 26.0.2, SVG Export Plug-In . SVG Version: 6.00 Build 0)  -->
<svg version="1.1" id="Calque_1" xmlns="http://www.w3.org/2000/svg" xmlns:xlink="http://www.w3.org/1999/xlink" x="0px" y="0px"
	 viewBox="0 0 413 377" style="enable-background:new 0 0 413 377;" xml:space="preserve">
<style type="text/css">
	.st0{fill:#771FDD;}
	.st1{fill:#E9415B;}
	.st2{fill:#891041;}
	.st3{fill:#DB643A;}
	.st4{fill:#F68226;}
	.st5{fill:#FFAE2C;}
	.st6{fill:#F9E7B7;}
	.st7{fill:#FFFFFF;}
	.st8{fill:#F99027;}
	.st9{fill:#CB5838;}
	.st10{fill:#FFC751;}
	.st11{fill:#FDE3B2;}
	.st12{fill:#A31A4C;}
	.st13{fill:#FF826F;}
	.st14{fill:#E53557;}
	.st15{fill:#FFDB8A;}
	.st16{fill:#9B1847;}
	.st17{fill:#FFC452;}
	.st18{fill:#FFF2BD;}
</style>
<g id="surface1">
	<path class="st0" d="M395.3,231.8c0,31.4-7.3,61.1-20.4,87.4l-352.9,0C9,292.9,1.6,263.2,1.6,231.8c0-108.7,88.1-196.9,196.7-196.9
		h0.3C307.3,34.9,395.3,123.1,395.3,231.8z"/>
	<path class="st1" d="M361.7,231.8l-326.5,0c0-90.2,73-163.3,163.1-163.3h0.3C288.7,68.5,361.7,141.6,361.7,231.8z"/>
	<path class="st2" d="M198.6,107.2c33.2,0,64.5,13,88,36.5c14.1,14.1,24.4,31,30.4,49.4l-237.1,0c6-18.4,16.3-35.3,30.4-49.4
		c23.5-23.5,54.8-36.5,88-36.5H198.6z M198.6,68.5h-0.3c-90.1,0-163.1,73.1-163.1,163.3l326.5,0C361.7,141.6,288.7,68.5,198.6,68.5z
		"/>
	<path class="st3" d="M361.7,244.2l-338.9,0l0-12.4c0-96.9,78.7-175.7,175.5-175.7h0.3c96.8,0,175.5,78.8,175.5,175.7v12.4
		L361.7,244.2z M48.2,219.4l300.6,0C342.4,142,277.5,81,198.6,81h-0.3C119.4,81,54.5,142,48.2,219.4z"/>
	<path class="st4" d="M198.6,56.1h-0.3c-68.5,0-128,39.5-156.9,97c-4.2,8.3,1.8,18.1,11.1,18.1c4.7,0,9-2.6,11.1-6.8
		C88.3,115,139.4,81,198.3,81h0.3c58.9,0,110,34,134.8,83.4c2.1,4.2,6.4,6.8,11.1,6.8c9.3,0,15.2-9.8,11.1-18.1
		C326.6,95.7,267.1,56.1,198.6,56.1z"/>
	<path class="st5" d="M198.6,56.1h-0.3c-50.9,0-96.8,21.8-128.9,56.6c-7.3,7.9-1.7,20.8,9.1,20.8c3.5,0,6.8-1.5,9.1-4
		C115.3,99.7,154.6,81,198.3,81h0.3c43.7,0,83.1,18.7,110.6,48.5c2.3,2.5,5.6,4,9.1,4c10.8,0,16.5-12.9,9.1-20.8
		C295.4,77.9,249.5,56.1,198.6,56.1z"/>
	<path class="st6" d="M168.9,64.3c-3.7,0.6-6.1,4.2-5.5,7.8c0.6,3.3,3.4,5.6,6.7,5.6c0.4,0,0.8,0,1.2-0.1c3.7-0.6,6.1-4.2,5.5-7.8
		C176.1,66.1,172.6,63.7,168.9,64.3z"/>
	<path class="st7" d="M89.2,101.5c-2.9,2.4-3.2,6.7-0.8,9.5c1.3,1.6,3.2,2.4,5.2,2.4c1.5,0,3.1-0.5,4.3-1.6c2.9-2.4,3.2-6.7,0.8-9.5
		C96.3,99.5,92,99.1,89.2,101.5z"/>
	<path class="st7" d="M140.3,72c-3.5,1.3-5.3,5.2-4,8.7c1,2.7,3.6,4.5,6.4,4.5c0.8,0,1.5-0.1,2.3-0.4c3.5-1.3,5.3-5.2,4.1-8.7
		C147.7,72.5,143.8,70.7,140.3,72z"/>
	<path class="st7" d="M113.4,84.5c-3.2,1.9-4.3,6-2.5,9.3c1.3,2.2,3.5,3.4,5.9,3.4c1.1,0,2.3-0.3,3.4-0.9c3.2-1.9,4.3-6,2.5-9.3
		C120.8,83.7,116.7,82.6,113.4,84.5z"/>
	<path class="st6" d="M38.9,196.8c-3.7-0.6-7.2,1.8-7.8,5.5c0,0,0,0,0,0c-0.6,3.7,1.8,7.2,5.5,7.8c0.4,0.1,0.8,0.1,1.2,0.1
		c3.2,0,6.1-2.3,6.7-5.6C45,200.9,42.5,197.4,38.9,196.8z"/>
	<path class="st6" d="M77.8,121.6c-2.9-2.4-7.1-2-9.5,0.8c-2.4,2.9-2,7.1,0.8,9.6c1.3,1.1,2.8,1.6,4.4,1.6c1.9,0,3.8-0.8,5.2-2.4
		C81,128.3,80.6,124,77.8,121.6z"/>
	<path class="st6" d="M47.4,169.6c-3.5-1.3-7.4,0.5-8.7,4c-1.3,3.5,0.5,7.4,4,8.7c0.8,0.3,1.5,0.4,2.3,0.4c2.8,0,5.4-1.7,6.4-4.5
		C52.7,174.7,50.9,170.8,47.4,169.6z"/>
	<path class="st6" d="M60.5,144.3c-3.2-1.9-7.4-0.8-9.3,2.5c-1.9,3.2-0.8,7.4,2.5,9.3c1.1,0.6,2.2,0.9,3.4,0.9
		c2.3,0,4.6-1.2,5.9-3.4C64.8,150.3,63.7,146.1,60.5,144.3z"/>
	<path class="st6" d="M227.9,64.3c-3.7-0.6-7.2,1.8-7.8,5.5c-0.6,3.7,1.8,7.2,5.5,7.8c0.4,0.1,0.8,0.1,1.2,0.1
		c3.2,0,6.1-2.3,6.7-5.6C234,68.4,231.6,64.9,227.9,64.3z"/>
	<path class="st6" d="M345.6,146.6c-1.9-3.2-6-4.3-9.3-2.5c-3.2,1.9-4.3,6-2.5,9.3c1.3,2.2,3.5,3.4,5.9,3.4c1.2,0,2.3-0.3,3.4-0.9
		C346.4,154,347.5,149.9,345.6,146.6z"/>
	<path class="st6" d="M358.2,173.5c-1.3-3.5-5.2-5.3-8.7-4c-3.5,1.3-5.3,5.2-4,8.7c1,2.7,3.6,4.4,6.4,4.4c0.8,0,1.6-0.1,2.3-0.4
		C357.7,180.9,359.5,177,358.2,173.5z"/>
	<path class="st6" d="M205.2,68.5c0,3.7-3,6.8-6.8,6.8c-3.7,0-6.8-3-6.8-6.8c0-3.7,3-6.8,6.8-6.8C202.1,61.8,205.2,64.8,205.2,68.5z
		"/>
	<path class="st6" d="M365.9,202.1c-0.6-3.7-4.2-6.1-7.8-5.5c-3.7,0.6-6.1,4.2-5.5,7.8c0.6,3.3,3.4,5.6,6.7,5.6c0.4,0,0.8,0,1.2-0.1
		C364.1,209.3,366.5,205.8,365.9,202.1z"/>
	<path class="st6" d="M319.1,121.5c-2.9,2.4-3.2,6.7-0.8,9.6c1.3,1.6,3.2,2.4,5.2,2.4c1.5,0,3.1-0.5,4.4-1.6
		c2.9-2.4,3.2-6.7,0.8-9.6C326.2,119.5,321.9,119.1,319.1,121.5z"/>
	<path class="st7" d="M307.6,101.4c-2.9-2.4-7.1-2-9.5,0.8c-2.4,2.9-2,7.2,0.8,9.6c1.3,1.1,2.8,1.6,4.3,1.6c1.9,0,3.9-0.8,5.2-2.4
		C310.9,108.1,310.5,103.8,307.6,101.4z"/>
	<path class="st7" d="M256.5,71.9c-3.5-1.3-7.4,0.5-8.7,4.1c-1.3,3.5,0.5,7.4,4.1,8.7c0.8,0.3,1.5,0.4,2.3,0.4
		c2.8,0,5.4-1.7,6.4-4.5C261.8,77.1,260,73.2,256.5,71.9z"/>
	<path class="st7" d="M283.4,84.4c-3.2-1.9-7.4-0.8-9.2,2.5c-1.9,3.2-0.8,7.4,2.5,9.3c1.1,0.6,2.2,0.9,3.4,0.9
		c2.3,0,4.6-1.2,5.9-3.4C287.7,90.4,286.6,86.3,283.4,84.4z"/>
	<path class="st8" d="M169,65c-1.6,0-3.1-0.5-4.4-1.5l-28.9-21.9c-3.2-2.4-3.9-7-1.4-10.3c2.4-3.2,7-3.9,10.2-1.4l22.4,16.9
		l25.3-43.3c2-3.5,6.5-4.7,10-2.6c3.5,2,4.7,6.5,2.6,10l-29.4,50.4c-1.1,1.8-2.8,3.1-4.9,3.5C170,65,169.5,65,169,65z"/>
	<path class="st9" d="M227.9,65c-0.5,0-1,0-1.4-0.1c-2-0.4-3.8-1.7-4.9-3.5L192.2,11c-2-3.5-0.9-8,2.6-10c3.5-2,8-0.9,10,2.6
		l25.3,43.3L252.5,30c3.2-2.4,7.8-1.8,10.2,1.4c2.4,3.2,1.8,7.8-1.4,10.3l-28.9,21.9C231,64.5,229.5,65,227.9,65z"/>
	<path class="st10" d="M171.4,53.6l23.5-40.1c1.6-2.8,5.6-2.8,7.2,0l23.5,40.1c1.3,2.2,4.1,2.7,6.1,1.2l22.1-16.7
		c2.8-2.1,6.6,0.5,5.7,3.9l-16.5,61.4l-89.2,0L137.4,42c-0.9-3.4,3-6,5.7-3.9l22.1,16.7C167.3,56.4,170.1,55.8,171.4,53.6z"/>
	<path class="st8" d="M153.8,103.2l0,0.1l57,0c12.7,0,23.8-8.4,27.2-20.7l9.1-32.7c0.8-2.8-2.5-5-4.8-3.3l-2.9,2.2l-7.8,5.9
		c-1.9,1.4-4.5,1-5.9-0.8c-0.1-0.1-0.2-0.2-0.3-0.4l-23.5-40.1c-0.3-0.6-0.8-1-1.3-1.4c-1.2-0.8-2.6-0.9-3.9-0.4
		c-0.8,0.3-1.6,0.9-2.1,1.8l-12.7,21.7l-10.8,18.4c-0.5,0.9-1.4,1.6-2.3,1.9c0,0,0,0,0,0c0,0,0,0-0.1,0c-0.3,0.1-0.5,0.1-0.8,0.2
		c-1,0.1-2-0.2-2.9-0.8l-18.9-14.3l-3-2.3c-0.1-0.1-0.2-0.1-0.3-0.2c-2.9-1.8-6.5,1-5.6,4.3L153.8,103.2z"/>
	<path class="st10" d="M160,89.7l34.3,0c2.3,0,4.2-1.9,4.2-4.2l0-62.8c0-4.3-5.6-5.8-7.8-2.1l-19.3,33c-1.3,2.2-4.1,2.7-6.1,1.2
		l-9.9-7.5l-12-9.1c-0.1-0.1-0.2-0.1-0.3-0.2c-2.9-1.8-6.5,1-5.6,4.3l10.2,37.8C149.2,85.9,154.2,89.7,160,89.7z"/>
	<path class="st11" d="M163.1,89.7l21.7,0l-2.9-42.3c-0.2-3.1-4.3-4.1-5.9-1.4l-4.5,7.6c-1.3,2.2-4.1,2.7-6.1,1.2l-3.2-2.4
		c-2.3-1.7-5.6,0.2-5.1,3.1L163.1,89.7z"/>
	<path class="st9" d="M244.8,113.3l-92.6,0c-2.7,0-4.9-2.2-4.9-4.9v-6c0-2.7,2.2-4.9,4.9-4.9l92.6,0c2.7,0,4.9,2.2,4.9,4.9l0,6
		C249.6,111.1,247.4,113.3,244.8,113.3z"/>
	<path class="st8" d="M245.7,113.3l-94.5,0c-2.1,0-3.9-1.7-3.9-3.9v-2.3c0-2.1,1.7-3.9,3.9-3.9l94.5,0c2.1,0,3.9,1.7,3.9,3.9l0,2.3
		C249.6,111.5,247.9,113.3,245.7,113.3z"/>
	<path class="st10" d="M222.8,113.3l-71.6,0c-2.1,0-3.9-1.7-3.9-3.9v-2.3c0-2.1,1.7-3.9,3.9-3.9l71.6,0c2.1,0,3.9,1.7,3.9,3.9v2.3
		C226.7,111.5,224.9,113.3,222.8,113.3z"/>
	<path class="st11" d="M195.3,113.3l-27.2,0c-1.8,0-3.2-1.4-3.2-3.2v-3.6c0-1.8,1.4-3.2,3.2-3.2l27.2,0c1.8,0,3.2,1.4,3.2,3.2v3.6
		C198.5,111.8,197,113.3,195.3,113.3z"/>
	<path class="st8" d="M208.4,40.7c0,5.5-4.5,10-9.9,10c-5.5,0-9.9-4.5-9.9-10c0-5.5,4.5-10,9.9-10C204,30.8,208.4,35.2,208.4,40.7z"
		/>
	<path class="st11" d="M203.9,40.7c0,3-2.4,5.5-5.5,5.5c-3,0-5.5-2.5-5.5-5.5c0-3,2.4-5.5,5.5-5.5C201.5,35.2,203.9,37.7,203.9,40.7
		z"/>
	<path class="st9" d="M243.6,79.4c0,6.8-5.5,12.3-12.2,12.3c-6.8,0-12.2-5.5-12.2-12.3c0-6.8,5.5-12.3,12.2-12.3
		C238.1,67.2,243.6,72.6,243.6,79.4z"/>
	<path class="st11" d="M222.7,88.1c4.8,4.8,12.5,4.8,17.3,0c4.8-4.8,4.8-12.5,0-17.3L222.7,88.1z"/>
	<path class="st12" d="M223.5,79.4c0,4.3,3.5,7.9,7.9,7.9v-7.9H223.5z"/>
	<path class="st13" d="M239.3,79.4l-7.9,0v7.9C235.7,87.3,239.3,83.8,239.3,79.4z"/>
	<path class="st13" d="M223.5,79.4c0-4.3,3.5-7.9,7.9-7.9l0,7.9H223.5z"/>
	<path class="st12" d="M239.3,79.4l-7.9,0l0-7.9C235.7,71.5,239.3,75.1,239.3,79.4z"/>
	<path class="st14" d="M235.3,79.4c0,2.2-1.8,3.9-3.9,3.9s-3.9-1.8-3.9-3.9s1.8-3.9,3.9-3.9C233.6,75.5,235.3,77.2,235.3,79.4z"/>
	<path class="st9" d="M177.8,79.4c0,6.8-5.5,12.3-12.2,12.3c-6.8,0-12.2-5.5-12.2-12.3c0-6.8,5.5-12.3,12.2-12.3
		C172.3,67.2,177.8,72.6,177.8,79.4z"/>
	<path class="st11" d="M156.9,88.1c4.8,4.8,12.5,4.8,17.3,0c4.8-4.8,4.8-12.5,0-17.3L156.9,88.1z"/>
	<path class="st12" d="M157.7,79.4c0,4.3,3.5,7.9,7.9,7.9l0-7.9L157.7,79.4z"/>
	<path class="st13" d="M173.4,79.4l-7.9,0l0,7.9C169.9,87.3,173.4,83.8,173.4,79.4z"/>
	<path class="st13" d="M157.7,79.4c0-4.3,3.5-7.9,7.9-7.9v7.9L157.7,79.4z"/>
	<path class="st12" d="M173.4,79.4l-7.9,0v-7.9C169.9,71.5,173.4,75.1,173.4,79.4z"/>
	<path class="st14" d="M169.5,79.4c0,2.2-1.8,3.9-3.9,3.9c-2.2,0-3.9-1.8-3.9-3.9c0-2.2,1.8-3.9,3.9-3.9
		C167.7,75.5,169.5,77.2,169.5,79.4z"/>
	<path class="st14" d="M185.6,67.1l0,14.9l12.9,7.4l12.9-7.4l0-14.9l-12.9-7.4L185.6,67.1z"/>
	<path class="st14" d="M191.2,70.3l0,8.4l7.3,4.2l7.3-4.2v-8.4l-7.3-4.2L191.2,70.3z"/>
	<path class="st12" d="M211.4,67.1l-5.6,3.2v8.4l5.6,3.2L211.4,67.1z"/>
	<path class="st12" d="M198.5,82.9v6.5l-12.9-7.4l5.6-3.2L198.5,82.9z"/>
	<path class="st13" d="M185.6,67.1l5.6,3.2l7.3-4.2l0-6.5L185.6,67.1z"/>
	<path class="st13" d="M198.5,82.9l7.3-4.2l5.6,3.2l-12.9,7.4V82.9z"/>
	<path class="st12" d="M198.5,59.6l0,6.5l7.3,4.2l5.6-3.2L198.5,59.6z"/>
	<path class="st12" d="M185.6,67.1l5.6,3.2l0,8.4l-5.6,3.2L185.6,67.1z"/>
	<path class="st9" d="M210.1,82.7l-10.4,6c-0.8,0.4-1.7,0.4-2.5,0l-10.4-6c-0.8-0.4-1.2-1.3-1.2-2.1v-12c0-0.9,0.5-1.7,1.2-2.1
		l10.4-6c0.8-0.4,1.7-0.4,2.5,0l10.4,6c0.8,0.4,1.2,1.3,1.2,2.1v12C211.4,81.4,210.9,82.2,210.1,82.7z M197.2,54.6l-15.4,8.9
		c-0.8,0.4-1.2,1.3-1.2,2.1l0,17.8c0,0.9,0.5,1.7,1.2,2.1l15.4,8.9c0.8,0.4,1.7,0.4,2.5,0l15.4-8.9c0.8-0.4,1.2-1.3,1.2-2.1l0-17.8
		c0-0.9-0.5-1.7-1.2-2.1l-15.4-8.9C198.9,54.2,198,54.2,197.2,54.6z"/>
	<path class="st11" d="M216.3,66.5l0,16.8c0,0.9-0.5,1.7-1.2,2.1l-15.4,8.9c-0.8,0.4-1.7,0.4-2.5,0L182.7,86c-0.9-0.5-0.9-1.8,0-2.3
		l1.7-1c0.8-0.4,1.7-0.4,2.5,0l10.4,6c0.8,0.4,1.7,0.4,2.5,0l10.4-6c0.8-0.4,1.2-1.3,1.2-2.1l0-12c0-0.9,0.5-1.7,1.2-2.1l1.7-1
		C215.2,64.8,216.3,65.5,216.3,66.5z"/>
	<path class="st5" d="M404.4,242.5l-395.8,0c-4.8,0-8.6,3.9-8.6,8.6l0,68.1c0,4.8,3.9,8.6,8.6,8.6l395.8,0c4.8,0,8.6-3.9,8.6-8.6
		l0-68.1C413,246.4,409.1,242.5,404.4,242.5z"/>
	<path class="st9" d="M413,277.9l-413,0l0,32c0,3.8,3.1,6.9,6.9,6.9l399.3,0c3.8,0,6.9-3.1,6.9-6.9L413,277.9L413,277.9z"/>
	<path class="st4" d="M407.3,264.6l-401.6,0c-3.1,0-5.7,2.6-5.7,5.7L0,289c0,3.2,2.6,5.7,5.7,5.7l401.6,0c3.1,0,5.7-2.6,5.7-5.7
		v-18.7C413,267.2,410.4,264.6,407.3,264.6z"/>
	<path class="st5" d="M368.6,217l-340.2,0c-5.7,0-10.3,4.6-10.3,10.3l0,115.8c0,5.7,4.6,10.3,10.3,10.3l340.2,0
		c5.7,0,10.3-4.6,10.3-10.3l0-115.8C378.9,221.6,374.2,217,368.6,217z"/>
	<path class="st9" d="M364.8,282.2l-332.6,0c-4.5,0-8.1,4.6-8.1,10.4l0,34.8c0,5.7,3.6,10.4,8.1,10.4l332.6,0
		c4.5,0,8.1-4.6,8.1-10.4l0-34.8C372.9,286.8,369.2,282.2,364.8,282.2z"/>
	<path class="st15" d="M369.5,260.8l-342,0c-1.9,0-3.4-1.5-3.4-3.4l0-8.5c0-1.9,1.5-3.4,3.4-3.4l342,0c1.9,0,3.4,1.5,3.4,3.4l0,8.5
		C372.9,259.3,371.3,260.8,369.5,260.8z"/>
	<path class="st4" d="M370.5,316.6l-344.2,0c-1.3,0-2.3-1-2.3-2.3l0-2.4c0-1.3,1-2.3,2.3-2.3l344.2,0c1.3,0,2.3,1,2.3,2.3v2.4
		C372.9,315.6,371.8,316.6,370.5,316.6z"/>
	<path class="st3" d="M320.2,220.1c5.7,0,10.4,4.6,10.4,10.4l0,109.5c0,5.7-4.6,10.4-10.4,10.4l-243.4,0c-5.7,0-10.4-4.6-10.4-10.4
		l0-109.5c0-5.7,4.6-10.4,10.4-10.4L320.2,220.1z M320.2,198.5l-243.4,0c-17.6,0-31.9,14.3-31.9,31.9l0,109.5
		c0,17.6,14.3,31.9,31.9,31.9l243.4,0c17.6,0,31.9-14.3,31.9-31.9l0-109.5C352.1,212.8,337.8,198.5,320.2,198.5z"/>
	<path class="st15" d="M342.8,321.9l0,18.1c0,12.5-10.1,22.7-22.7,22.7l-243.4,0c-12.5,0-22.7-10.2-22.7-22.7l0-18.1
		c0-3.3-2.7-6-6-6H48c-1.1,0-2.1-0.1-3.2-0.3l0,25.2c0,20,16.2,36.2,36.2,36.2l239.1,0c17.6,0,31.9-14.3,31.9-31.9l0-29.5
		c-1,0.2-2.1,0.3-3.2,0.3h-0.1C345.5,315.9,342.8,318.5,342.8,321.9z"/>
	<path class="st15" d="M320.2,193.4l-243.4,0c-17.6,0-31.9,14.3-31.9,31.9l0,80.7c1,0.4,2.1,0.6,3.2,0.6c2.2,0,4.2-0.9,5.8-2.4
		l0.2-0.2l0-73.5c0-12.5,10.1-22.7,22.7-22.7l243.4,0c12.5,0,22.7,10.2,22.7,22.7l0,73.5l0.2,0.2c1.6,1.6,3.6,2.4,5.8,2.4
		c1.1,0,2.2-0.2,3.2-0.6l0-80.7C352.1,207.7,337.8,193.4,320.2,193.4z"/>
	<path class="st5" d="M165.6,362.6h7.1c1.7,0,3,1.7,2.6,3.4l-2.4,9c-0.3,1.2-1.4,2-2.6,2h-7.1c-1.7,0-3-1.7-2.6-3.4l2.4-9
		C163.3,363.4,164.4,362.6,165.6,362.6z"/>
	<path class="st5" d="M234.3,193.4l7.1,0c1.7,0,3,1.7,2.6,3.4l-2.4,9c-0.3,1.2-1.4,2-2.6,2h-7.1c-1.8,0-3-1.7-2.6-3.4l2.4-9
		C232,194.2,233.1,193.4,234.3,193.4z"/>
	<path class="st5" d="M76.8,362.6l30,0c1.7,0,3,1.7,2.6,3.4l-2.4,9c-0.3,1.2-1.4,2-2.6,2L69,377c-13.3,0-24.1-10.8-24.1-24.2l0-37.3
		c1,0.2,2.1,0.3,3.2,0.3h0.1c3.3,0,6,2.7,6,6l0,18.1C54.1,352.5,64.2,362.6,76.8,362.6z"/>
	<path class="st5" d="M352.1,315.5l0,37.3c0,13.3-10.8,24.1-24.1,24.1l-125.3,0c-1.7,0-3-1.7-2.6-3.4l2.4-9c0.3-1.2,1.4-2,2.6-2
		l115.1,0c12.5,0,22.7-10.2,22.7-22.7v-18.1c0-3.3,2.7-6,6-6h0.1C350,315.9,351,315.7,352.1,315.5z"/>
	<path class="st5" d="M69,193.4l106.4,0c1.7,0,3,1.7,2.6,3.4l-2.4,9c-0.3,1.2-1.4,2-2.6,2l-96.2,0c-12.5,0-22.7,10.2-22.7,22.7
		l0,73.5l-0.2,0.2c-1.6,1.6-3.6,2.4-5.8,2.4c-1.1,0-2.2-0.2-3.2-0.6l0-88.5C44.9,204.2,55.7,193.4,69,193.4z"/>
	<path class="st5" d="M352.1,217.5l0,88.5c-1,0.4-2.1,0.6-3.2,0.6c-2.2,0-4.2-0.9-5.8-2.4l-0.2-0.2l0-73.5
		c0-12.5-10.2-22.7-22.7-22.7l-48.9,0c-1.8,0-3-1.7-2.6-3.4l2.4-9c0.3-1.2,1.4-2,2.6-2l54.2,0C341.3,193.4,352.1,204.2,352.1,217.5z
		"/>
	<path class="st16" d="M179.2,143.1l0-10.6c0-4-3.2-7.3-7.2-7.3l-9.5,0c-0.8,0-1.6,0.1-2.3,0.4c-1.2-0.4-2.5-0.7-3.9-1
		c-1.7-0.3-3.7-0.5-5.7-0.5c-3.5,0-6.9,0.5-10.3,1.6c-2.6,0.8-5.1,2.1-7.3,3.6c-1.2-2.4-3.6-4.1-6.5-4.1l-26.3,0
		c-2,0-3.8,0.8-5.1,2.1c-0.6-0.3-1.2-0.5-1.9-0.8c-2.4-0.9-5.3-1.3-8.9-1.3l-33.5,0c-4,0-7.2,3.2-7.2,7.3l0,10.6
		c0,3.1,2,5.8,4.7,6.8l0,7.4c-2.7,1-4.7,3.7-4.7,6.8l0,10.6c0,4,3.2,7.2,7.2,7.2l31.5,0c4.2,0,7.6-0.4,10.4-1.3
		c0.8-0.3,1.5-0.5,2.3-0.8c1.3,1.3,3.1,2.2,5.2,2.2l26.3,0c2.8,0,5.2-1.6,6.4-3.9c2.2,1.5,4.7,2.7,7.4,3.5c3.4,1,7.1,1.6,10.9,1.6
		c3.6,0,7-0.6,9.9-1.7c0.1,0,0.2-0.1,0.3-0.1c0.9,0.4,1.9,0.6,2.9,0.6l8.8,0c4,0,7.2-3.2,7.2-7.3l0-8.2c2.7-1,4.7-3.7,4.7-6.8v-9.5
		C185.3,146.7,182.6,143.7,179.2,143.1z M65.9,153.3c-0.3,0.8-0.5,1.6-0.5,2.5l0,8.2c0,1.2,0.3,2.4,0.8,3.4h-5.4
		c1.4-1.8,2.2-4,2.2-6.6l0-14.5c0-2.6-0.8-4.9-2.2-6.6h5.4c-0.5,1-0.8,2.2-0.8,3.4l0,7.7C65.4,151.7,65.6,152.6,65.9,153.3z
		 M85.2,139.7c2,0.1,2.9,0.3,3.2,0.4c0.6,0.2,0.8,0.4,0.9,0.4c0,0,0,0,0,0.1c0.2,0.7,0.3,1.5,0.3,2.3c0,1.8,0,2.4-2.1,2.7
		c-0.2-2-0.9-3.9-2-5.6C85.4,140,85.3,139.9,85.2,139.7z M90.5,165.9C90.5,165.9,90.5,165.9,90.5,165.9c-0.1,0.1-0.5,0.5-2,1
		c-0.4,0.1-1.2,0.3-2.3,0.5c1.3-1.8,2.1-4,2.2-6.6c0.7,0.1,1.5,0.3,1.9,0.7c0.5,0.4,0.5,1.8,0.5,2.2
		C90.8,164.4,90.7,165.1,90.5,165.9z M110.2,167.5c1.4-1.8,2.2-4,2.2-6.6l0-14.5c0-2.6-0.8-4.9-2.2-6.6h6.7
		c-1.2,1.4-2.1,3.6-2.1,6.6l0,14.5c0,2.5,0.8,4.8,2.1,6.6H110.2z M141.2,160.6c0.4,2.4,1.1,4.4,2,6.2c0.1,0.2,0.2,0.4,0.3,0.5
		c-1.3-0.5-2.4-1.2-3.4-2.1c-1.2-1.1-2.2-2.5-3-4.3c-0.8-1.9-1.2-4.4-1.2-7.3c0-2.9,0.4-5.3,1.3-7.2c0.8-1.9,1.9-3.3,3.2-4.4
		c1.1-1,2.4-1.7,3.8-2.3c-1.2,1.7-2.1,3.7-2.7,6.1c-0.5,2.2-0.8,4.7-0.8,7.8C140.7,156.4,140.8,158.7,141.2,160.6z M166.1,163v2.1
		c-0.2-0.1-0.4-0.1-0.6-0.2c0,0,0,0,0,0c0-0.2,0-0.5,0-0.8v-1.6c0-1.8-0.4-3.5-1.3-5h3.3C166.5,159.1,166.1,160.9,166.1,163z"/>
	<path class="st16" d="M346.4,125.2l-18.5,0c-2,0-3.8,0.8-5.1,2.1c-1.3-1.3-3.2-2.1-5.1-2.1l-22.5,0c-0.4,0-0.8,0-1.2,0.1
		c-0.4-0.1-0.8-0.1-1.2-0.1l-26.3,0c-0.3,0-0.6,0-0.9,0.1c-0.3,0-0.6-0.1-0.9-0.1l-16.7,0c-0.4,0-0.7,0-1.1,0.1
		c-0.3-0.1-0.7-0.1-1.1-0.1l-22.7,0c-0.4,0-0.7,0-1.1,0.1c-0.3-0.1-0.7-0.1-1.1-0.1l-23.9,0c-4,0-7.2,3.2-7.2,7.3v10.6
		c0,3.5,2.4,6.4,5.7,7.1l10.6,27.1c1.1,2.8,3.8,4.6,6.7,4.6l12.7,0c2.2,0,4.2-1,5.6-2.6c1.4,1.6,3.4,2.6,5.6,2.6l12.7,0
		c3,0,5.7-1.9,6.8-4.7l2.9-7.9v5.4c0,4,3.2,7.2,7.2,7.2l26.3,0c0.4,0,0.8,0,1.2-0.1c0.4,0.1,0.8,0.1,1.2,0.1l19.7,0
		c2,0,3.8-0.8,5.1-2.1c1.3,1.3,3.2,2.1,5.1,2.1l17.2,0c4,0,7.2-3.2,7.2-7.2l0-25.1c2.4-1.2,4.1-3.7,4.1-6.5v-10.6
		C353.7,128.5,350.5,125.2,346.4,125.2z M220.7,167.5H218l-9.2-23.7c-0.3-0.8-0.6-1.5-0.9-2c-0.3-0.7-0.8-1.4-1.3-2h6.5
		c-1.7,2.3-2.1,5.3-1.1,8.4l4.2,13.9c0.7,2.3,2.5,4.1,4.7,4.8L220.7,167.5z M244.6,167.5l-2.6,0l-3.9-10.6c-0.8-2.2-2.6-3.8-4.7-4.4
		l0.7-2.2c0.5-1.5,0.4-3.1-0.1-4.6l-0.6-1.7c0,0,0,0,0-0.1c-0.6-1.8-1.3-3.1-2-4.1h6.2c0,0,0,0,0,0c-0.9,1.3-2.3,4.2-1,8.2l3.5,13.7
		c0.6,2.5,2.5,4.4,4.9,5.1L244.6,167.5z M263.8,157.4l0.3-0.7v0.6C264,157.3,263.9,157.4,263.8,157.4z M276.4,167.5
		c1.4-1.8,2.2-4,2.2-6.6v-14.5c0-2.6-0.8-4.9-2.2-6.6h6.7c-1.2,1.4-2.1,3.6-2.1,6.6v14.5c0,2.5,0.8,4.8,2.1,6.6L276.4,167.5z
		 M335.1,167.5l-6,0l-12.8-20.1c-1.7-2.7-5-4-8.1-3.1c-0.4,0.1-0.8,0.3-1.1,0.4c-0.3-1.9-1-3.6-2.1-5l8.8,0l12.2,19.1
		c1.7,2.7,5,4,8.1,3.1c0.4-0.1,0.7-0.2,1.1-0.4L335.1,167.5z"/>
	<path class="st17" d="M96.9,143c0,6.1-3.2,9.5-9.5,10v0.3c3.3,0.1,5.9,1,7.8,2.7c1.9,1.7,2.9,4.3,2.9,7.5c0,1.4-0.2,2.7-0.5,4.1
		c-0.3,1.3-1,2.5-2.1,3.5c-1.1,1-2.6,1.9-4.7,2.5c-2,0.6-4.8,1-8.2,1l-31.5,0l0-10.6c1.7,0,2.9-0.2,3.6-0.7c0.7-0.4,1.1-1.3,1.1-2.5
		l0-14.5c0-1.3-0.4-2.1-1.1-2.6c-0.7-0.4-1.9-0.7-3.6-0.7l0-10.6l33.5,0c2.6,0,4.8,0.3,6.4,0.9c1.6,0.6,2.9,1.4,3.8,2.4
		c0.9,1,1.5,2.1,1.7,3.4C96.7,140.4,96.9,141.7,96.9,143z M72.7,150.8H77c1.2,0,2-0.4,2.6-1.1c0.5-0.8,0.8-1.7,0.8-2.7
		c0-1-0.3-1.9-0.8-2.7c-0.5-0.8-1.4-1.1-2.6-1.1h-4.3L72.7,150.8z M76.9,164.1c1.6,0,2.7-0.3,3.3-0.9c0.6-0.6,0.9-1.7,0.9-3.1
		c0-1.5-0.3-2.5-0.9-3.2c-0.6-0.7-1.7-1-3.3-1h-4.3l0,8.2L76.9,164.1L76.9,164.1z"/>
	<path class="st17" d="M100.4,174.7l0-10.6c1.7,0,2.9-0.2,3.6-0.7c0.7-0.4,1.1-1.3,1.1-2.5l0-14.5c0-1.3-0.4-2.1-1.1-2.6
		c-0.7-0.4-1.9-0.7-3.6-0.7l0-10.6l26.3,0l0,10.6c-1.7,0-2.9,0.2-3.6,0.7c-0.7,0.4-1.1,1.3-1.1,2.6l0,14.5c0,1.2,0.4,2.1,1.1,2.5
		c0.7,0.4,1.9,0.7,3.6,0.7l0,10.6L100.4,174.7z"/>
	<path class="st17" d="M164.5,174.7l-0.9-2.9c-1.2,1.1-2.9,2-5,2.9c-2.1,0.8-4.5,1.2-7.3,1.2c-3.1,0-6-0.4-8.8-1.3
		c-2.7-0.8-5.1-2.2-7.2-4c-2.1-1.8-3.7-4.1-4.9-6.9c-1.2-2.8-1.8-6.2-1.8-10.2c0-4,0.6-7.3,1.9-10.2c1.3-2.8,2.9-5.1,5-6.9
		c2.1-1.8,4.4-3.1,7-4c2.6-0.8,5.3-1.3,8-1.3c1.6,0,3,0.1,4.3,0.4c1.3,0.2,2.4,0.6,3.4,0.9c1,0.4,1.8,0.8,2.5,1.2
		c0.7,0.4,1.2,0.7,1.6,1v-2.3l9.5,0l0,15.6l-10,0c-0.1-2-0.7-3.7-1.8-4.9c-1.1-1.3-2.7-1.9-4.7-1.9c-1,0-2,0.2-2.9,0.6
		c-0.9,0.4-1.7,1-2.4,2c-0.7,0.9-1.2,2.2-1.6,3.8c-0.4,1.6-0.6,3.6-0.6,6c0,2.3,0.1,4.2,0.4,5.8c0.3,1.6,0.7,2.8,1.2,3.8
		c0.5,1,1.2,1.7,2.1,2.1c0.8,0.4,1.9,0.6,3,0.6c0.3,0,0.6,0,1-0.1c0.4-0.1,0.8-0.2,1.2-0.3c0.4-0.1,0.7-0.3,1-0.6
		c0.3-0.2,0.4-0.5,0.4-0.9v-1.6c0-0.9-0.3-1.6-0.9-2c-0.6-0.5-1.8-0.7-3.4-0.7l0-9.5l24.2,0v9.5c-1.7,0-2.9,0.2-3.6,0.7
		c-0.7,0.4-1.1,1.3-1.1,2.5l0,11.7L164.5,174.7L164.5,174.7z"/>
	<path class="st17" d="M231.2,159.4l-5.4,15.3l-12.7,0l-11-28.3c-0.2-0.6-0.4-1.1-0.6-1.5c-0.2-0.4-0.5-0.7-0.8-1
		c-0.3-0.3-0.8-0.5-1.3-0.6c-0.5-0.1-1.2-0.2-2-0.2v-10.6l23.9,0l0,10.6c-1,0-1.7,0.2-2.2,0.7c-0.4,0.5-0.5,1.2-0.2,2.2l4.2,13.9
		h0.2l3.8-11.9l-0.6-1.7c-0.4-1.1-0.8-2-1.2-2.5c-0.4-0.5-1-0.8-1.9-0.8l0-10.6l22.7,0l0,10.6c-1.4,0-2.3,0.2-2.6,0.7
		c-0.3,0.5-0.3,1.2,0,2.2l3.6,13.9h0.2l4.3-13.9c0.6-1.9-0.5-2.9-3.3-2.9v-10.6l16.7,0l0,10.6c-0.8,0-1.5,0.1-2,0.2
		c-0.5,0.1-1,0.3-1.3,0.6c-0.3,0.3-0.6,0.6-0.8,1s-0.4,0.9-0.6,1.5l-10.5,28.3l-12.7,0L231.2,159.4z"/>
	<path class="st17" d="M266.6,174.7v-10.6c1.7,0,2.9-0.2,3.6-0.7c0.7-0.4,1.1-1.3,1.1-2.5v-14.5c0-1.3-0.4-2.1-1.1-2.6
		c-0.7-0.4-1.9-0.7-3.6-0.7l0-10.6l26.3,0v10.6c-1.7,0-2.9,0.2-3.6,0.7c-0.7,0.4-1.1,1.3-1.1,2.6l0,14.5c0,1.2,0.4,2.1,1.1,2.5
		c0.7,0.4,1.9,0.7,3.6,0.7l0,10.6L266.6,174.7z"/>
	<path class="st17" d="M346.4,132.5v10.6c-1.7,0-2.8,0.3-3.3,0.8c-0.5,0.6-0.8,1.4-0.8,2.4v28.3l-17.2,0l-14.9-23.4v9.9
		c0,1.2,0.4,2,1.1,2.4c0.7,0.3,1.9,0.5,3.6,0.5l0,10.6l-19.7,0v-10.6c1.7,0,2.9-0.2,3.6-0.7c0.7-0.4,1.1-1.3,1.1-2.5l0-14.5
		c0-1.3-0.4-2.1-1.1-2.6c-0.7-0.4-1.9-0.7-3.6-0.7v-10.6l22.5,0l14.3,22.4v-8.6c0-1.3-0.3-2.1-0.8-2.6c-0.5-0.4-1.6-0.7-3.3-0.7
		v-10.6L346.4,132.5L346.4,132.5z"/>
	<path class="st18" d="M96.4,139.1c-0.3-1.3-0.9-2.4-1.7-3.4c-0.9-1-2.1-1.8-3.8-2.3c-1.6-0.6-3.8-0.9-6.4-0.9l-33.5,0l0,10.6
		c1.7,0,2.9,0.2,3.6,0.7c0.7,0.4,1.1,1.3,1.1,2.6c0,2,1.6,3.6,3.6,3.6l9.6,0c2,0,3.6-1.6,3.6-3.6v-3.2H77c1.2,0,2,0.4,2.6,1.1
		c0.5,0.8,0.8,1.7,0.8,2.7v0c0,1.7,1.4,3,3,3l8.5,0c2.1,0,4-1.4,4.6-3.4c0.3-1.1,0.4-2.3,0.4-3.6C96.9,141.7,96.7,140.4,96.4,139.1z
		"/>
	<path class="st18" d="M100.4,132.5l0,10.6c1.7,0,2.9,0.2,3.6,0.7c0.7,0.4,1.1,1.3,1.1,2.6c0,2,1.6,3.6,3.6,3.6l9.6,0
		c2,0,3.6-1.6,3.6-3.6c0-1.3,0.4-2.1,1.1-2.6c0.7-0.4,1.9-0.7,3.6-0.7l0-10.6L100.4,132.5z"/>
	<path class="st18" d="M162.5,132.5v2.3c-0.4-0.3-1-0.6-1.6-1c-0.7-0.4-1.5-0.8-2.5-1.2c-1-0.4-2.1-0.7-3.4-0.9
		c-1.3-0.2-2.7-0.4-4.3-0.4c-2.7,0-5.4,0.4-8,1.3c-2.6,0.8-5,2.2-7,4c-2.1,1.8-3.7,4.1-5,6.9c-0.4,0.8-0.7,1.7-1,2.7
		c-0.5,1.9,0.9,3.9,2.9,3.9h13c1.4,0,2.6-1,3-2.4c0,0,0,0,0,0c0.4-1.6,0.9-2.9,1.6-3.8c0.7-0.9,1.5-1.6,2.4-2
		c0.9-0.4,1.9-0.6,2.9-0.6c2,0,3.6,0.6,4.7,1.9c1.1,1.3,1.7,2.9,1.8,4.9l10,0l0-15.6L162.5,132.5L162.5,132.5z"/>
	<path class="st18" d="M248.2,132.5v10.6c2.8,0,3.9,1,3.3,2.9c-0.6,2,0.9,4,2.9,4h1.2c1.9,0,3.7-1.2,4.3-3l0.2-0.6
		c0.2-0.6,0.4-1.1,0.6-1.5c0.2-0.4,0.5-0.7,0.8-1c0.3-0.3,0.7-0.4,1.3-0.6c0.5-0.1,1.2-0.2,2-0.2v-10.6L248.2,132.5L248.2,132.5z
		 M223.4,143.1c0.9,0,1.5,0.3,1.9,0.8c0.4,0.5,0.8,1.3,1.2,2.5l0.6,1.7c-0.3,1,0.4,2,1.4,2h11.8c2.1,0,3.6-2,3.1-4
		c-0.3-1-0.3-1.7,0-2.2c0.3-0.5,1.2-0.7,2.6-0.7l0-10.6l-22.7,0L223.4,143.1z M197.3,143.1c0.8,0,1.5,0.1,2,0.2
		c0.5,0.1,0.9,0.3,1.3,0.6c0.3,0.3,0.6,0.6,0.8,1c0.2,0.4,0.4,0.9,0.6,1.5c0.9,2.2,3,3.6,5.3,3.6l8.6,0c2.1,0,3.6-2,3-4
		c-0.3-1-0.2-1.7,0.2-2.2c0.4-0.5,1.1-0.7,2.2-0.7l0-10.6l-23.9,0V143.1z"/>
	<path class="st18" d="M266.6,132.5v10.6c1.7,0,2.9,0.2,3.6,0.7c0.7,0.4,1.1,1.3,1.1,2.6c0,2,1.6,3.6,3.6,3.6h9.6
		c2,0,3.6-1.6,3.6-3.6c0-1.3,0.4-2.1,1.1-2.6c0.7-0.4,1.9-0.7,3.6-0.7v-10.6L266.6,132.5z"/>
	<path class="st18" d="M327.9,132.5v10.6c1.7,0,2.8,0.2,3.3,0.7s0.8,1.3,0.8,2.6c0,2,1.6,3.6,3.6,3.6l3,0c2,0,3.6-1.6,3.6-3.6
		c0-1.1,0.3-1.9,0.8-2.4c0.5-0.6,1.6-0.8,3.3-0.8v-10.6L327.9,132.5L327.9,132.5z M295.2,132.5l0,10.6c1.7,0,2.9,0.2,3.6,0.7
		c0.7,0.4,1.1,1.3,1.1,2.6c0,2,1.6,3.6,3.6,3.6l20.4,0c2.1,0,3.4-2.4,2.3-4.2l-8.5-13.4L295.2,132.5z"/>
	<path class="st16" d="M82.6,175.8l-31.5,0c-0.6,0-1-0.5-1-1l0-10.6c0-0.6,0.5-1,1-1c1.8,0,2.7-0.3,3.1-0.5c0.4-0.2,0.6-0.8,0.6-1.6
		l0-14.5c0-0.9-0.2-1.4-0.6-1.7c-0.4-0.2-1.2-0.5-3.1-0.5c-0.6,0-1-0.5-1-1l0-10.6c0-0.6,0.5-1,1-1l33.5,0c2.7,0,5,0.3,6.7,1
		c1.8,0.6,3.2,1.5,4.2,2.6c1,1.1,1.7,2.4,2,3.8c0.3,1.3,0.5,2.7,0.5,4.1c0,5-2.1,8.4-6,10c1.5,0.5,2.9,1.3,4,2.3
		c2.1,1.9,3.2,4.7,3.2,8.3c0,1.5-0.2,2.9-0.5,4.3c-0.4,1.5-1.2,2.9-2.4,4c-1.2,1.1-2.9,2.1-5.1,2.8C89,175.4,86.1,175.8,82.6,175.8z
		 M52.1,173.7l30.5,0c3.3,0,6-0.3,7.9-0.9c1.9-0.6,3.3-1.4,4.3-2.3c0.9-0.9,1.5-1.9,1.8-3c0.3-1.2,0.5-2.5,0.5-3.8
		c0-3-0.8-5.2-2.5-6.8c-1.7-1.6-4.1-2.4-7.2-2.5c-0.6,0-1-0.5-1-1V153c0-0.5,0.4-1,0.9-1c5.9-0.5,8.6-3.4,8.6-9
		c0-1.3-0.1-2.5-0.4-3.7c-0.2-1.1-0.7-2.1-1.5-2.9c-0.8-0.8-1.9-1.5-3.3-2.1c-1.5-0.5-3.5-0.8-6-0.8l-32.4,0l0,8.6
		c1.4,0.1,2.4,0.3,3.1,0.8c1.1,0.7,1.6,1.8,1.6,3.5l0,14.5c0,1.6-0.5,2.8-1.6,3.4c-0.7,0.4-1.7,0.7-3.1,0.8L52.1,173.7z M76.9,165.1
		l-4.3,0c-0.6,0-1-0.5-1-1l0-8.2c0-0.6,0.5-1,1-1h4.3c1.9,0,3.3,0.4,4.1,1.3c0.8,0.9,1.2,2.2,1.2,3.9c0,1.8-0.4,3-1.2,3.8
		C80.2,164.7,78.9,165.1,76.9,165.1z M73.7,163h3.2c1.7,0,2.4-0.4,2.6-0.6c0.4-0.4,0.6-1.2,0.6-2.4c0-1.2-0.2-2-0.6-2.5
		c-0.3-0.3-0.9-0.7-2.6-0.7h-3.2L73.7,163z M77,151.8h-4.3c-0.6,0-1-0.5-1-1l0-7.7c0-0.6,0.5-1,1-1H77c1.9,0,2.9,0.9,3.4,1.6
		c0.6,0.9,1,2,1,3.3c0,1.3-0.3,2.4-1,3.3C79.9,151,78.9,151.8,77,151.8z M73.7,149.8H77c1.1,0,1.5-0.4,1.7-0.7
		c0.4-0.6,0.6-1.3,0.6-2.1c0-0.8-0.2-1.5-0.6-2.1c-0.2-0.3-0.6-0.7-1.7-0.7h-3.3V149.8z"/>
	<path class="st16" d="M126.6,175.8l-26.3,0c-0.6,0-1-0.5-1-1l0-10.6c0-0.6,0.5-1,1-1c1.8,0,2.7-0.3,3.1-0.5
		c0.4-0.2,0.6-0.8,0.6-1.6l0-14.5c0-0.9-0.2-1.4-0.6-1.7c-0.4-0.2-1.2-0.5-3.1-0.5c-0.6,0-1-0.5-1-1l0-10.6c0-0.6,0.5-1,1-1l26.3,0
		c0.6,0,1,0.5,1,1l0,10.6c0,0.6-0.5,1-1,1c-1.8,0-2.7,0.3-3,0.5c-0.4,0.2-0.6,0.8-0.6,1.7l0,14.5c0,0.9,0.2,1.4,0.6,1.7
		c0.4,0.2,1.2,0.5,3,0.5c0.6,0,1,0.5,1,1l0,10.6C127.7,175.3,127.2,175.8,126.6,175.8z M101.4,173.7l24.2,0l0-8.6
		c-1.4-0.1-2.4-0.4-3.1-0.8c-1-0.6-1.6-1.8-1.6-3.4l0-14.5c0-1.6,0.5-2.8,1.6-3.4c0.7-0.5,1.7-0.7,3.1-0.8l0-8.6l-24.2,0l0,8.6
		c1.4,0.1,2.4,0.3,3.1,0.8c1.1,0.7,1.6,1.8,1.6,3.5l0,14.5c0,1.6-0.5,2.8-1.6,3.4c-0.7,0.4-1.8,0.7-3.1,0.8L101.4,173.7z"/>
	<path class="st16" d="M151.3,177c-3.2,0-6.2-0.4-9.1-1.3c-2.9-0.9-5.4-2.3-7.6-4.2c-2.2-1.9-3.9-4.3-5.1-7.3
		c-1.2-2.9-1.9-6.5-1.9-10.6c0-4.1,0.7-7.6,2-10.6c1.3-2.9,3.1-5.4,5.3-7.3c2.2-1.9,4.7-3.3,7.4-4.2c2.7-0.9,5.5-1.3,8.4-1.3
		c1.7,0,3.2,0.1,4.5,0.4c1.3,0.3,2.5,0.6,3.6,1c1,0.4,1.9,0.8,2.6,1.3c0,0,0,0,0,0v-0.5c0-0.6,0.5-1,1-1h9.5c0.6,0,1,0.5,1,1l0,15.6
		c0,0.6-0.5,1-1,1h-10c-0.6,0-1-0.4-1-1c-0.1-1.8-0.6-3.2-1.5-4.3c-0.9-1-2.2-1.5-4-1.5c-0.9,0-1.7,0.2-2.5,0.5
		c-0.7,0.3-1.4,0.8-1.9,1.6c-0.6,0.8-1.1,2-1.4,3.4c-0.4,1.5-0.6,3.4-0.6,5.8c0,2.2,0.1,4.1,0.4,5.6c0.2,1.4,0.6,2.6,1.1,3.4
		c0.4,0.8,1,1.3,1.6,1.7c0.7,0.4,1.5,0.5,2.6,0.5c0.2,0,0.5,0,0.9-0.1c0.3,0,0.6-0.1,0.9-0.2c0.3-0.1,0.5-0.2,0.7-0.4c0,0,0,0,0-0.1
		v-1.6c0-0.7-0.3-1.1-0.5-1.2c-0.2-0.1-0.8-0.5-2.8-0.5c-0.6,0-1-0.5-1-1v-9.5c0-0.6,0.5-1,1-1l24.2,0c0.6,0,1,0.5,1,1l0,9.5
		c0,0.6-0.5,1-1,1c-1.8,0-2.7,0.3-3.1,0.5c-0.4,0.2-0.6,0.8-0.6,1.7l0,11.8c0,0.6-0.5,1-1,1l-8.8,0c-0.5,0-0.8-0.3-1-0.7l-0.5-1.5
		c-1.1,0.8-2.5,1.5-4.1,2.1C156.8,176.5,154.2,177,151.3,177z M150.7,132.4c-2.6,0-5.2,0.4-7.7,1.2c-2.5,0.8-4.7,2.1-6.7,3.7
		c-1.9,1.7-3.5,3.9-4.7,6.6c-1.2,2.7-1.8,5.9-1.8,9.7c0,3.8,0.6,7.1,1.7,9.8c1.1,2.7,2.7,4.9,4.6,6.5c1.9,1.7,4.2,3,6.8,3.7
		c2.6,0.8,5.5,1.2,8.5,1.2c2.6,0,4.9-0.4,6.9-1.2c2-0.8,3.5-1.7,4.6-2.7c0.3-0.2,0.6-0.3,1-0.2c0.3,0.1,0.6,0.3,0.7,0.7l0.7,2.1h7
		l0-10.7c0-1.6,0.5-2.8,1.6-3.4c0.7-0.5,1.8-0.7,3.1-0.8l0-7.4l-22.1,0l0,7.4c1.4,0.1,2.4,0.4,3,0.9c0.6,0.5,1.3,1.3,1.3,2.9v1.6
		c0,0.7-0.3,1.3-0.8,1.7c-0.4,0.3-0.8,0.5-1.3,0.7c-0.4,0.2-0.9,0.3-1.4,0.4c-0.5,0.1-0.8,0.1-1.2,0.1c-1.3,0-2.5-0.3-3.5-0.8
		c-1-0.5-1.9-1.4-2.5-2.5c-0.6-1.1-1-2.5-1.3-4.1c-0.3-1.6-0.4-3.6-0.4-6c0-2.5,0.2-4.6,0.6-6.3c0.4-1.7,1-3.1,1.8-4.2
		c0.8-1.1,1.7-1.9,2.8-2.3c1-0.4,2.1-0.6,3.3-0.6c2.3,0,4.2,0.7,5.5,2.2c1.1,1.2,1.8,2.8,2,4.6l8,0l0-13.5l-7.4,0v1.3
		c0,0.4-0.2,0.7-0.5,0.9c-0.3,0.2-0.7,0.2-1.1,0c-0.4-0.3-1-0.6-1.6-1c-0.6-0.4-1.4-0.7-2.3-1.1c-0.9-0.3-2-0.6-3.2-0.9
		C153.6,132.5,152.2,132.4,150.7,132.4z"/>
	<path class="st16" d="M249.6,175.8l-12.7,0c-0.4,0-0.8-0.3-1-0.7l-4.7-12.6l-4.5,12.6c-0.1,0.4-0.5,0.7-1,0.7l-12.7,0
		c-0.4,0-0.8-0.3-1-0.7l-11-28.3c-0.2-0.6-0.4-1-0.6-1.4c-0.1-0.3-0.3-0.5-0.5-0.7c-0.2-0.2-0.5-0.3-0.8-0.4c-0.4-0.1-1-0.1-1.8-0.1
		c-0.6,0-1-0.5-1-1l0-10.6c0-0.6,0.5-1,1-1l23.9,0c0.6,0,1,0.5,1,1l0,10.6c0,0.6-0.5,1-1,1c-0.7,0-1.2,0.1-1.4,0.4
		c-0.2,0.3-0.1,0.8,0,1.2l3.3,11.1l2.7-8.7l-0.5-1.4c-0.5-1.3-0.8-1.9-1-2.2c-0.2-0.2-0.5-0.3-1.1-0.3c-0.6,0-1-0.5-1-1v-10.6
		c0-0.6,0.5-1,1-1l22.7,0c0.6,0,1,0.5,1,1v10.6c0,0.6-0.5,1-1,1c-1.5,0-1.8,0.3-1.8,0.3c-0.1,0.1-0.1,0.5,0.1,1.2l2.8,10.8l3.3-10.8
		c0.1-0.3,0.2-0.8,0-1c-0.1-0.1-0.5-0.6-2.3-0.6c-0.6,0-1-0.5-1-1l0-10.6c0-0.6,0.5-1,1-1l16.7,0c0.6,0,1,0.5,1,1v10.6
		c0,0.6-0.5,1-1,1c-0.7,0-1.4,0.1-1.8,0.1c-0.4,0.1-0.6,0.2-0.8,0.3c-0.2,0.2-0.4,0.4-0.5,0.7c-0.2,0.4-0.4,0.9-0.6,1.4l-10.5,28.3
		C250.5,175.5,250.1,175.8,249.6,175.8z M237.7,173.7l11.3,0l10.3-27.7c0.2-0.6,0.5-1.2,0.7-1.6c0.3-0.5,0.6-1,1-1.3
		c0.4-0.4,1-0.6,1.7-0.8c0.4-0.1,0.8-0.1,1.2-0.2v-8.6l-14.6,0v8.6c1.4,0.1,2.4,0.6,2.9,1.3c0.6,0.7,0.7,1.7,0.3,2.8l-4.3,13.9
		c-0.1,0.4-0.5,0.7-1,0.7H247c-0.5,0-0.9-0.3-1-0.8l-3.6-13.9c-0.4-1.2-0.3-2.2,0.2-3c0.4-0.6,1.2-1,2.5-1.1l0-8.6l-20.6,0v8.7
		c0.7,0.2,1.3,0.5,1.7,1.1c0.4,0.6,0.9,1.5,1.3,2.7l0.6,1.7c0.1,0.2,0.1,0.4,0,0.7l-3.8,11.9c-0.1,0.4-0.5,0.7-1,0.7h-0.2
		c-0.5,0-0.9-0.3-1-0.7l-4.2-13.9c-0.5-1.6-0.1-2.6,0.4-3.2c0.5-0.5,1.1-0.8,1.9-1l0-8.6l-21.9,0l0,8.6c0.4,0,0.8,0.1,1.2,0.2
		c0.7,0.1,1.3,0.4,1.7,0.8c0.4,0.4,0.8,0.8,1.1,1.3c0.2,0.4,0.4,0.9,0.7,1.6l10.8,27.7l11.3,0l5.2-14.6c0.1-0.4,0.5-0.7,1-0.7
		c0,0,0,0,0,0c0.4,0,0.8,0.3,1,0.7L237.7,173.7z"/>
	<path class="st16" d="M292.9,175.8l-26.3,0c-0.6,0-1-0.5-1-1v-10.6c0-0.6,0.5-1,1-1c1.8,0,2.7-0.3,3.1-0.5c0.4-0.2,0.6-0.8,0.6-1.6
		l0-14.5c0-0.9-0.2-1.4-0.6-1.7c-0.4-0.2-1.2-0.5-3.1-0.5c-0.6,0-1-0.5-1-1v-10.6c0-0.6,0.5-1,1-1l26.3,0c0.6,0,1,0.5,1,1v10.6
		c0,0.6-0.5,1-1,1c-1.8,0-2.7,0.3-3,0.5c-0.4,0.2-0.6,0.8-0.6,1.7v14.5c0,0.9,0.2,1.4,0.6,1.7c0.4,0.2,1.2,0.5,3,0.5
		c0.6,0,1,0.5,1,1v10.6C293.9,175.3,293.4,175.8,292.9,175.8z M267.6,173.7l24.2,0l0-8.6c-1.4-0.1-2.4-0.4-3.1-0.8
		c-1-0.6-1.6-1.8-1.6-3.4v-14.5c0-1.6,0.5-2.8,1.6-3.4c0.7-0.5,1.7-0.7,3.1-0.8l0-8.6l-24.2,0v8.6c1.4,0.1,2.4,0.3,3.1,0.8
		c1.1,0.7,1.6,1.8,1.6,3.5l0,14.5c0,1.6-0.5,2.8-1.6,3.4c-0.7,0.5-1.8,0.7-3.1,0.8V173.7z"/>
	<path class="st16" d="M342.4,175.8l-17.2,0c-0.4,0-0.7-0.2-0.9-0.5l-13-20.4v6.3c0,0.5,0.1,1.2,0.5,1.4c0.4,0.2,1.3,0.4,3.2,0.4
		c0.6,0,1,0.5,1,1v10.6c0,0.6-0.5,1-1,1l-19.7,0c-0.6,0-1-0.5-1-1v-10.6c0-0.6,0.5-1,1-1c1.8,0,2.7-0.3,3.1-0.5
		c0.4-0.2,0.6-0.8,0.6-1.6v-14.5c0-0.9-0.2-1.4-0.6-1.7c-0.4-0.2-1.2-0.5-3.1-0.5c-0.6,0-1-0.5-1-1v-10.6c0-0.6,0.5-1,1-1l22.5,0
		c0.4,0,0.7,0.2,0.9,0.5l12.4,19.4v-5c0-1.3-0.3-1.7-0.4-1.8c-0.1-0.1-0.6-0.4-2.6-0.4c-0.6,0-1-0.5-1-1l0-10.6c0-0.6,0.5-1,1-1
		l18.5,0c0.6,0,1,0.5,1,1l0,10.6c0,0.6-0.5,1-1,1c-1.9,0-2.4,0.4-2.6,0.5c-0.3,0.4-0.5,0.9-0.5,1.7l0,28.3
		C343.4,175.3,342.9,175.8,342.4,175.8z M325.7,173.7l15.6,0l0-27.3c0-1.3,0.4-2.4,1.1-3.1c0.6-0.6,1.6-1,3-1.1v-8.6l-16.4,0v8.6
		c1.4,0.1,2.3,0.4,2.9,0.9c0.8,0.7,1.2,1.8,1.2,3.4l0,8.6c0,0.5-0.3,0.9-0.7,1c-0.4,0.1-0.9,0-1.2-0.4l-14-22l-20.9,0l0,8.6
		c1.4,0.1,2.4,0.3,3.1,0.8c1.1,0.7,1.6,1.8,1.6,3.5v14.5c0,1.6-0.5,2.8-1.6,3.4c-0.7,0.5-1.7,0.7-3.1,0.8l0,8.6l17.6,0v-8.6
		c-1.3-0.1-2.3-0.3-3-0.6c-0.8-0.4-1.7-1.2-1.7-3.3v-9.9c0-0.5,0.3-0.9,0.8-1c0.4-0.1,0.9,0,1.2,0.4L325.7,173.7z"/>
</g>
</svg>
